{"title":"Soul Kitchen [2009] 720p ReRip BRRip H264 AC3 - CODY","uid":6963944,"size":2424019928,"categoryP":"video","categoryS":"hd___movies","magnet":"?xt=urn:btih:36c821404a485bf43e2a8841ca1b041c51f2b03d&amp;dn=Soul+Kitchen+%5B2009%5D+720p+ReRip+BRRip+H264+AC3+-+CODY&amp;tr=udp%3A%2F%2Ftracker.openbittorrent.com%3A80&amp;tr=udp%3A%2F%2Fopen.demonii.com%3A1337&amp;tr=udp%3A%2F%2Ftracker.coppersurfer.tk%3A6969&amp;tr=udp%3A%2F%2Fexodus.desync.com%3A6969","seeders":1,"leechers":0,"uploader":"CODYBOSS1969","files":7,"time":1326853321,"description":"General\nComplete name                            : Soul Kitchen [2009] 720p ReRip BRRip H264 AC3 - CODY.mp4\nFormat                                   : MPEG-4\nFormat profile                           : Base Media\nCodec ID                                 : isom\nFile size                                : 2.26 GiB\nDuration                                 : 1h 39mn\nOverall bit rate mode                    : Variable\nOverall bit rate                         : 3 246 Kbps\nEncoded date                             : UTC 2012-01-17 19:28:28\nTagged date                              : UTC 2012-01-17 19:28:28\n\nVideo\nID                                       : 1\nFormat                                   : AVC\nFormat/Info                              : Advanced Video Codec\nFormat profile                           : &lt;a class=&quot;__cf_email__&quot; href=&quot;/cdn-cgi/l/email-protection&quot; data-cfemail=&quot;8cc4e5ebe4ccc0b8a2bd&quot;&gt;[email&amp;#160;protected]&lt;/a&gt;&lt;script cf-hash='f9e31' type=&quot;text/javascript&quot;&gt;\n/* &lt;![CDATA[ */!function(){try{var t=&quot;currentScript&quot;in document?document.currentScript:function(){for(var t=document.getElementsByTagName(&quot;script&quot;),e=t.length;e--;)if(t[e].getAttribute(&quot;cf-hash&quot;))return t[e]}();if(t&amp;&amp;t.previousSibling){var e,r,n,i,c=t.previousSibling,a=c.getAttribute(&quot;data-cfemail&quot;);if(a){for(e=&quot;&quot;,r=parseInt(a.substr(0,2),16),n=2;a.length-n;n+=2)i=parseInt(a.substr(n,2),16)^r,e+=String.fromCharCode(i);e=document.createTextNode(e),c.parentNode.replaceChild(e,c)}}}catch(u){}}();/* ]]&gt; */&lt;/script&gt;\nFormat settings, CABAC                   : Yes\nFormat settings, ReFrames                : 4 frames\nCodec ID                                 : avc1\nCodec ID/Info                            : Advanced Video Coding\nDuration                                 : 1h 39mn\nBit rate mode                            : Variable\nBit rate                                 : 2 800 Kbps\nMaximum bit rate                         : 40.0 Mbps\nWidth                                    : 1 280 pixels\nHeight                                   : 688 pixels\nDisplay aspect ratio                     : 1.860\nFrame rate mode                          : Constant\nFrame rate                               : 24.000 fps\nColor space                              : YUV\nChroma subsampling                       : 4:2:0\nBit depth                                : 8 bits\nScan type                                : Progressive\nBits/(Pixel*Frame)                       : 0.132\nStream size                              : 1.94 GiB (86%)\nWriting library                          : x264 core 119 r2106 07efeb4\nEncoding settings                        : cabac=1 / ref=4 / deblock=1:0:0 / analyse=0x3:0x113 /\n me=umh / subme=9 / psy=1 / psy_rd=1.00:1.00 / mixed_ref=1 / me_range=16 / chroma_me=1 / trellis=2 /\n 8x8dct=1 / cqm=0 / deadzone=21,11 / fast_pskip=0 / chroma_qp_offset=-6 / threads=9 /\n sliced_threads=0 / nr=0 / decimate=1 / interlaced=0 / bluray_compat=0 / constrained_intra=0 /\n bframes=4 / b_pyramid=2 / b_adapt=2 / b_bias=0 / direct=3 / weightb=1 / open_gop=0 / weightp=2 /\n keyint=250 / keyint_min=23 / scenecut=40 / intra_refresh=0 / rc_lookahead=50 / rc=2pass /\n mbtree=1 / bitrate=2800 / ratetol=1.0 / qcomp=0.90 / qpmin=10 / qpmax=51 / qpstep=4 /\n cplxblur=20.0 / qblur=0.5 / vbv_maxrate=40000 / vbv_bufsize=40000 /\n nal_hrd=vbr / ip_ratio=1.40 / aq=1:1.00\nEncoded date                             : UTC 2012-01-17 19:28:28\nTagged date                              : UTC 2012-01-17 19:28:44\n\nAudio\nID                                       : 2\nFormat                                   : AC-3\nFormat/Info                              : Audio Coding 3\nMode extension                           : CM (complete main)\nCodec ID                                 : ac-3\nDuration                                 : 1h 39mn\nBit rate mode                            : Constant\nBit rate                                 : 448 Kbps\nChannel(s)                               : 6 channels\nChannel positions                        : Front: L C R, Side: L R, LFE\nSampling rate                            : 48.0 KHz\nBit depth                                : 16 bits\nCompression mode                         : Lossy\nStream size                              : 319 MiB (14%)\nEncoded date                             : UTC 2012-01-17 19:28:41\nTagged date                              : UTC 2012-01-17 19:28:44\n\n\n\n\n***IMDB link:                              &lt;a href=&quot; http://www.imdb.com/title/tt1244668/&quot; rel=&quot;nofollow&quot; target=&quot;_NEW&quot;&gt; http://www.imdb.com/title/tt1244668/&lt;/a&gt;\n\n\n\n\nSubtitles included                       : English, Romanian, Turkish\n\n\n\n\nPlease seed at least 1,5:1. This way this torrent has a chance to survive !\n\n\n\n\nThanks. Enjoy !!\n\n\n________________\n\n\n*** Venice Film Festival Special Jury Prize\n\n________________\n\n\n\t\t","torrent":{"xt":"urn:btih:36c821404a485bf43e2a8841ca1b041c51f2b03d","amp;dn":"Soul+Kitchen+%5B2009%5D+720p+ReRip+BRRip+H264+AC3+-+CODY","amp;tr":["udp%3A%2F%2Ftracker.openbittorrent.com%3A80","udp%3A%2F%2Fopen.demonii.com%3A1337","udp%3A%2F%2Ftracker.coppersurfer.tk%3A6969","udp%3A%2F%2Fexodus.desync.com%3A6969"],"infoHash":"36c821404a485bf43e2a8841ca1b041c51f2b03d","infoHashBuffer":{"type":"Buffer","data":[54,200,33,64,74,72,91,244,62,42,136,65,202,27,4,28,81,242,176,61]},"announce":[],"urlList":[]}}